# xmcd CD database file
#
# Track frame offsets:
#	150
#	22818
#	37415
#	55776
#	72364
#	90977
#	103273
#	119856
#	129244
#	154185
#	171661
#
# Disc length: 2476 seconds
#
# Revision: 0
# Processed by: cddbd v1.5.2PL0 Copyright (c) Steve Scherf et al.
# Submitted via: CDex 1.70beta2
#
DISCID=9b09aa0b
DTITLE=June Coco - The Road
DYEAR=2015
DGENRE=Jazz
TTITLE0=On the road
TTITLE1=The party
TTITLE2=Rain falls
TTITLE3=Wrong romance
TTITLE4=Delia
TTITLE5=Romeo's late
TTITLE6=Welcome back blues
TTITLE7=Wave goodbye
TTITLE8=Your ways
TTITLE9=TV Screen
TTITLE10=Did do will
EXTD=YEAR: 2015
EXTT0=
EXTT1=
EXTT2=
EXTT3=
EXTT4=
EXTT5=
EXTT6=
EXTT7=
EXTT8=
EXTT9=
EXTT10=
PLAYORDER=
